<svg width="20" height="20" viewBox="0 0 20 20" fill="none" xmlns="http://www.w3.org/2000/svg">
<path d="M18.6562 15.9537C18.6002 16.0442 18.522 16.119 18.4291 16.1708C18.3361 16.2227 18.2314 16.2499 18.125 16.25H11.875C11.7092 16.25 11.5502 16.1841 11.433 16.0669C11.3158 15.9497 11.25 15.7907 11.25 15.625V3.12496C11.25 2.98422 11.2975 2.8476 11.3848 2.73723C11.4721 2.62685 11.5942 2.54918 11.7311 2.51678C11.8681 2.48439 12.012 2.49917 12.1395 2.55873C12.267 2.61828 12.3707 2.71914 12.4337 2.84496L18.6837 15.345C18.7315 15.4403 18.754 15.5464 18.7492 15.6529C18.7444 15.7595 18.7124 15.863 18.6562 15.9537ZM12.5 5.77246V15H17.1137L12.5 5.77246ZM1.87498 16.25C1.7684 16.25 1.66359 16.2227 1.57051 16.1708C1.47744 16.1188 1.39918 16.044 1.34319 15.9533C1.2872 15.8626 1.25533 15.7591 1.25061 15.6526C1.24589 15.5462 1.26848 15.4402 1.31623 15.345L7.56623 2.84496C7.62929 2.71914 7.73297 2.61828 7.86048 2.55873C7.988 2.49917 8.13188 2.48439 8.26884 2.51678C8.4058 2.54918 8.52782 2.62685 8.61514 2.73723C8.70246 2.8476 8.74997 2.98422 8.74998 3.12496V15.625C8.74998 15.7907 8.68413 15.9497 8.56692 16.0669C8.44971 16.1841 8.29074 16.25 8.12498 16.25H1.87498Z" fill="#283849"/>
</svg>
