<svg width="20" height="20" viewBox="0 0 20 20" fill="none" xmlns="http://www.w3.org/2000/svg">
<path d="M10.5625 12.25C11.0101 12.25 11.4393 12.4278 11.7557 12.7443C12.0722 13.0607 12.25 13.4899 12.25 13.9375V14.5C12.25 16.7174 10.1575 19 6.625 19C3.0925 19 1 16.7174 1 14.5V13.9375C1 13.4899 1.17779 13.0607 1.49426 12.7443C1.81072 12.4278 2.23995 12.25 2.6875 12.25H10.5625ZM10.5625 13.375H2.6875C2.53832 13.375 2.39524 13.4343 2.28975 13.5397C2.18426 13.6452 2.125 13.7883 2.125 13.9375V14.5C2.125 16.1177 3.736 17.875 6.625 17.875C9.514 17.875 11.125 16.1177 11.125 14.5V13.9375C11.125 13.7883 11.0657 13.6452 10.9602 13.5397C10.8548 13.4343 10.7117 13.375 10.5625 13.375ZM6.625 4.9375C7.44551 4.9375 8.23242 5.26345 8.81261 5.84364C9.3928 6.42383 9.71875 7.21074 9.71875 8.03125C9.71875 8.85176 9.3928 9.63867 8.81261 10.2189C8.23242 10.7991 7.44551 11.125 6.625 11.125C5.80449 11.125 5.01758 10.7991 4.43739 10.2189C3.8572 9.63867 3.53125 8.85176 3.53125 8.03125C3.53125 7.21074 3.8572 6.42383 4.43739 5.84364C5.01758 5.26345 5.80449 4.9375 6.625 4.9375ZM16.75 1C17.3175 1.0001 17.8639 1.21462 18.2799 1.60057C18.6959 1.98652 18.9507 2.51539 18.9932 3.08125L19 3.25V5.5C19.0002 6.06765 18.7858 6.61439 18.3998 7.03062C18.0138 7.44684 17.4848 7.7018 16.9187 7.74437L16.75 7.75H15.0614L13.7136 9.55C13.1174 10.3442 11.9091 10.0225 11.7145 9.127L11.6954 9.00212L11.6875 8.875V7.67687L11.5997 7.65437C11.1954 7.53186 10.8336 7.29813 10.5557 6.97985C10.2778 6.66157 10.095 6.27158 10.0281 5.85437L10.0056 5.66762L10 5.5V3.25C9.99982 2.68235 10.2142 2.13561 10.6002 1.71938C10.9862 1.30315 11.5152 1.0482 12.0812 1.00563L12.25 1H16.75ZM6.625 6.0625C6.36646 6.0625 6.11045 6.11342 5.87159 6.21236C5.63273 6.3113 5.4157 6.45632 5.23288 6.63913C5.05007 6.82195 4.90505 7.03898 4.80611 7.27784C4.70717 7.5167 4.65625 7.77271 4.65625 8.03125C4.65625 8.28979 4.70717 8.5458 4.80611 8.78466C4.90505 9.02352 5.05007 9.24055 5.23288 9.42337C5.4157 9.60618 5.63273 9.7512 5.87159 9.85014C6.11045 9.94907 6.36646 10 6.625 10C7.14714 10 7.6479 9.79258 8.01712 9.42337C8.38633 9.05415 8.59375 8.55339 8.59375 8.03125C8.59375 7.5091 8.38633 7.00834 8.01712 6.63913C7.6479 6.26992 7.14714 6.0625 6.625 6.0625ZM16.75 2.125H12.25C11.9744 2.12504 11.7085 2.2262 11.5026 2.4093C11.2967 2.59241 11.1651 2.84472 11.1329 3.11837L11.125 3.25V5.5C11.125 5.77555 11.2262 6.0415 11.4093 6.24742C11.5924 6.45333 11.8447 6.58488 12.1184 6.61712L12.25 6.625H12.8125V8.875L14.5 6.625H16.75C17.0255 6.62496 17.2915 6.5238 17.4974 6.34069C17.7033 6.15759 17.8349 5.90528 17.8671 5.63162L17.875 5.5V3.25C17.875 2.97445 17.7738 2.7085 17.5907 2.50258C17.4076 2.29667 17.1553 2.16511 16.8816 2.13287L16.75 2.125Z" fill="#283849"/>
</svg>
