<svg width="20" height="20" viewBox="0 0 20 20" fill="none" xmlns="http://www.w3.org/2000/svg">
<path fill-rule="evenodd" clip-rule="evenodd" d="M2.66665 2.00004C2.66665 2.17685 2.59641 2.34642 2.47138 2.47145C2.34636 2.59647 2.17679 2.66671 1.99998 2.66671C1.82317 2.66671 1.6536 2.59647 1.52858 2.47145C1.40355 2.34642 1.33331 2.17685 1.33331 2.00004C1.33331 1.82323 1.40355 1.65366 1.52858 1.52864C1.6536 1.40361 1.82317 1.33337 1.99998 1.33337C2.17679 1.33337 2.34636 1.40361 2.47138 1.52864C2.59641 1.65366 2.66665 1.82323 2.66665 2.00004V2.00004ZM2.66665 6.66671V13.3334H17.3333V6.66671H2.66665ZM2.66665 5.33337C2.31302 5.33337 1.97389 5.47385 1.72384 5.7239C1.47379 5.97395 1.33331 6.31308 1.33331 6.66671V13.3334C1.33331 13.687 1.47379 14.0261 1.72384 14.2762C1.97389 14.5262 2.31302 14.6667 2.66665 14.6667H17.3333C17.6869 14.6667 18.0261 14.5262 18.2761 14.2762C18.5262 14.0261 18.6666 13.687 18.6666 13.3334V6.66671C18.6666 6.31308 18.5262 5.97395 18.2761 5.7239C18.0261 5.47385 17.6869 5.33337 17.3333 5.33337H2.66665ZM1.99998 18.6667C2.17679 18.6667 2.34636 18.5965 2.47138 18.4714C2.59641 18.3464 2.66665 18.1768 2.66665 18C2.66665 17.8232 2.59641 17.6537 2.47138 17.5286C2.34636 17.4036 2.17679 17.3334 1.99998 17.3334C1.82317 17.3334 1.6536 17.4036 1.52858 17.5286C1.40355 17.6537 1.33331 17.8232 1.33331 18C1.33331 18.1768 1.40355 18.3464 1.52858 18.4714C1.6536 18.5965 1.82317 18.6667 1.99998 18.6667V18.6667ZM5.33331 2.00004C5.33331 2.17685 5.26307 2.34642 5.13805 2.47145C5.01303 2.59647 4.84346 2.66671 4.66665 2.66671C4.48983 2.66671 4.32027 2.59647 4.19524 2.47145C4.07022 2.34642 3.99998 2.17685 3.99998 2.00004C3.99998 1.82323 4.07022 1.65366 4.19524 1.52864C4.32027 1.40361 4.48983 1.33337 4.66665 1.33337C4.84346 1.33337 5.01303 1.40361 5.13805 1.52864C5.26307 1.65366 5.33331 1.82323 5.33331 2.00004V2.00004ZM4.66665 18.6667C4.84346 18.6667 5.01303 18.5965 5.13805 18.4714C5.26307 18.3464 5.33331 18.1768 5.33331 18C5.33331 17.8232 5.26307 17.6537 5.13805 17.5286C5.01303 17.4036 4.84346 17.3334 4.66665 17.3334C4.48983 17.3334 4.32027 17.4036 4.19524 17.5286C4.07022 17.6537 3.99998 17.8232 3.99998 18C3.99998 18.1768 4.07022 18.3464 4.19524 18.4714C4.32027 18.5965 4.48983 18.6667 4.66665 18.6667ZM7.99998 2.00004C7.99998 2.17685 7.92974 2.34642 7.80472 2.47145C7.67969 2.59647 7.51012 2.66671 7.33331 2.66671C7.1565 2.66671 6.98693 2.59647 6.86191 2.47145C6.73688 2.34642 6.66665 2.17685 6.66665 2.00004C6.66665 1.82323 6.73688 1.65366 6.86191 1.52864C6.98693 1.40361 7.1565 1.33337 7.33331 1.33337C7.51012 1.33337 7.67969 1.40361 7.80472 1.52864C7.92974 1.65366 7.99998 1.82323 7.99998 2.00004V2.00004ZM7.33331 18.6667C7.51012 18.6667 7.67969 18.5965 7.80472 18.4714C7.92974 18.3464 7.99998 18.1768 7.99998 18C7.99998 17.8232 7.92974 17.6537 7.80472 17.5286C7.67969 17.4036 7.51012 17.3334 7.33331 17.3334C7.1565 17.3334 6.98693 17.4036 6.86191 17.5286C6.73688 17.6537 6.66665 17.8232 6.66665 18C6.66665 18.1768 6.73688 18.3464 6.86191 18.4714C6.98693 18.5965 7.1565 18.6667 7.33331 18.6667V18.6667ZM10.6666 2.00004C10.6666 2.17685 10.5964 2.34642 10.4714 2.47145C10.3464 2.59647 10.1768 2.66671 9.99998 2.66671C9.82317 2.66671 9.6536 2.59647 9.52857 2.47145C9.40355 2.34642 9.33331 2.17685 9.33331 2.00004C9.33331 1.82323 9.40355 1.65366 9.52857 1.52864C9.6536 1.40361 9.82317 1.33337 9.99998 1.33337C10.1768 1.33337 10.3464 1.40361 10.4714 1.52864C10.5964 1.65366 10.6666 1.82323 10.6666 2.00004V2.00004ZM9.99998 18.6667C10.1768 18.6667 10.3464 18.5965 10.4714 18.4714C10.5964 18.3464 10.6666 18.1768 10.6666 18C10.6666 17.8232 10.5964 17.6537 10.4714 17.5286C10.3464 17.4036 10.1768 17.3334 9.99998 17.3334C9.82317 17.3334 9.6536 17.4036 9.52857 17.5286C9.40355 17.6537 9.33331 17.8232 9.33331 18C9.33331 18.1768 9.40355 18.3464 9.52857 18.4714C9.6536 18.5965 9.82317 18.6667 9.99998 18.6667V18.6667ZM13.3333 2.00004C13.3333 2.17685 13.2631 2.34642 13.138 2.47145C13.013 2.59647 12.8435 2.66671 12.6666 2.66671C12.4898 2.66671 12.3203 2.59647 12.1952 2.47145C12.0702 2.34642 12 2.17685 12 2.00004C12 1.82323 12.0702 1.65366 12.1952 1.52864C12.3203 1.40361 12.4898 1.33337 12.6666 1.33337C12.8435 1.33337 13.013 1.40361 13.138 1.52864C13.2631 1.65366 13.3333 1.82323 13.3333 2.00004V2.00004ZM12.6666 18.6667C12.8435 18.6667 13.013 18.5965 13.138 18.4714C13.2631 18.3464 13.3333 18.1768 13.3333 18C13.3333 17.8232 13.2631 17.6537 13.138 17.5286C13.013 17.4036 12.8435 17.3334 12.6666 17.3334C12.4898 17.3334 12.3203 17.4036 12.1952 17.5286C12.0702 17.6537 12 17.8232 12 18C12 18.1768 12.0702 18.3464 12.1952 18.4714C12.3203 18.5965 12.4898 18.6667 12.6666 18.6667ZM16 2.00004C16 2.17685 15.9297 2.34642 15.8047 2.47145C15.6797 2.59647 15.5101 2.66671 15.3333 2.66671C15.1565 2.66671 14.9869 2.59647 14.8619 2.47145C14.7369 2.34642 14.6666 2.17685 14.6666 2.00004C14.6666 1.82323 14.7369 1.65366 14.8619 1.52864C14.9869 1.40361 15.1565 1.33337 15.3333 1.33337C15.5101 1.33337 15.6797 1.40361 15.8047 1.52864C15.9297 1.65366 16 1.82323 16 2.00004V2.00004ZM15.3333 18.6667C15.5101 18.6667 15.6797 18.5965 15.8047 18.4714C15.9297 18.3464 16 18.1768 16 18C16 17.8232 15.9297 17.6537 15.8047 17.5286C15.6797 17.4036 15.5101 17.3334 15.3333 17.3334C15.1565 17.3334 14.9869 17.4036 14.8619 17.5286C14.7369 17.6537 14.6666 17.8232 14.6666 18C14.6666 18.1768 14.7369 18.3464 14.8619 18.4714C14.9869 18.5965 15.1565 18.6667 15.3333 18.6667ZM18.6666 2.00004C18.6666 2.17685 18.5964 2.34642 18.4714 2.47145C18.3464 2.59647 18.1768 2.66671 18 2.66671C17.8232 2.66671 17.6536 2.59647 17.5286 2.47145C17.4035 2.34642 17.3333 2.17685 17.3333 2.00004C17.3333 1.82323 17.4035 1.65366 17.5286 1.52864C17.6536 1.40361 17.8232 1.33337 18 1.33337C18.1768 1.33337 18.3464 1.40361 18.4714 1.52864C18.5964 1.65366 18.6666 1.82323 18.6666 2.00004V2.00004ZM18 18.6667C18.1768 18.6667 18.3464 18.5965 18.4714 18.4714C18.5964 18.3464 18.6666 18.1768 18.6666 18C18.6666 17.8232 18.5964 17.6537 18.4714 17.5286C18.3464 17.4036 18.1768 17.3334 18 17.3334C17.8232 17.3334 17.6536 17.4036 17.5286 17.5286C17.4035 17.6537 17.3333 17.8232 17.3333 18C17.3333 18.1768 17.4035 18.3464 17.5286 18.4714C17.6536 18.5965 17.8232 18.6667 18 18.6667Z" fill="#283849"/>
</svg>
