<svg width="20" height="20" viewBox="0 0 20 20" fill="none" xmlns="http://www.w3.org/2000/svg">
<path d="M3.5 3C3.10218 3 2.72064 3.15804 2.43934 3.43934C2.15804 3.72064 2 4.10218 2 4.5V8.5C2 8.89782 2.15804 9.27936 2.43934 9.56066C2.72064 9.84196 3.10218 10 3.5 10H12.5C12.8978 10 13.2794 9.84196 13.5607 9.56066C13.842 9.27936 14 8.89782 14 8.5V4.5C14 4.10218 13.842 3.72064 13.5607 3.43934C13.2794 3.15804 12.8978 3 12.5 3H3.5ZM3 4.5C3 4.36739 3.05268 4.24021 3.14645 4.14645C3.24021 4.05268 3.36739 4 3.5 4H12.5C12.6326 4 12.7598 4.05268 12.8536 4.14645C12.9473 4.24021 13 4.36739 13 4.5V8.5C13 8.63261 12.9473 8.75978 12.8536 8.85355C12.7598 8.94732 12.6326 9 12.5 9H3.5C3.36739 9 3.24021 8.94732 3.14645 8.85355C3.05268 8.75978 3 8.63261 3 8.5V4.5ZM3.5 11C3.10218 11 2.72064 11.158 2.43934 11.4393C2.15804 11.7206 2 12.1022 2 12.5V16.5C2 16.8978 2.15804 17.2794 2.43934 17.5607C2.72064 17.842 3.10218 18 3.5 18H12.5C12.8978 18 13.2794 17.842 13.5607 17.5607C13.842 17.2794 14 16.8978 14 16.5V12.5C14 12.1022 13.842 11.7206 13.5607 11.4393C13.2794 11.158 12.8978 11 12.5 11H3.5ZM3 12.5C3 12.3674 3.05268 12.2402 3.14645 12.1464C3.24021 12.0527 3.36739 12 3.5 12H12.5C12.6326 12 12.7598 12.0527 12.8536 12.1464C12.9473 12.2402 13 12.3674 13 12.5V16.5C13 16.6326 12.9473 16.7598 12.8536 16.8536C12.7598 16.9473 12.6326 17 12.5 17H3.5C3.36739 17 3.24021 16.9473 3.14645 16.8536C3.05268 16.7598 3 16.6326 3 16.5V12.5ZM17 12.437C16.7045 12.5127 16.3955 12.5199 16.0968 12.458C15.798 12.3961 15.5174 12.2668 15.2762 12.08C15.035 11.8931 14.8398 11.6537 14.7052 11.3798C14.5707 11.106 14.5005 10.8051 14.5 10.5C14.4999 10.0565 14.6472 9.62558 14.9187 9.27495C15.1902 8.92431 15.5706 8.67387 16 8.563C16.328 8.47854 16.672 8.47854 17 8.563C17.4298 8.6735 17.8106 8.92378 18.0825 9.27445C18.3544 9.62512 18.502 10.0563 18.502 10.5C18.502 10.9437 18.3544 11.3749 18.0825 11.7255C17.8106 12.0762 17.4298 12.3265 17 12.437ZM16.5 3C16.6326 3 16.7598 3.05268 16.8536 3.14645C16.9473 3.24021 17 3.36739 17 3.5V7.541C16.669 7.48543 16.331 7.48543 16 7.541V3.5C16 3.36739 16.0527 3.24021 16.1464 3.14645C16.2402 3.05268 16.3674 3 16.5 3ZM16.5 13.5C16.33 13.5 16.163 13.486 16 13.459V17.5C16 17.6326 16.0527 17.7598 16.1464 17.8536C16.2402 17.9473 16.3674 18 16.5 18C16.6326 18 16.7598 17.9473 16.8536 17.8536C16.9473 17.7598 17 17.6326 17 17.5V13.459C16.837 13.486 16.67 13.5 16.5 13.5Z" fill="#283849"/>
</svg>
