<svg width="20" height="20" viewBox="0 0 20 20" fill="none" xmlns="http://www.w3.org/2000/svg">
<path d="M17.8444 5.55554H2.15553C1.87852 5.55554 1.61287 5.66558 1.41699 5.86145C1.22112 6.05732 1.11108 6.32298 1.11108 6.59999V16.7333C1.11108 17.0103 1.22112 17.276 1.41699 17.4719C1.61287 17.6677 1.87852 17.7778 2.15553 17.7778H17.8444C18.1214 17.7778 18.3871 17.6677 18.583 17.4719C18.7788 17.276 18.8889 17.0103 18.8889 16.7333V6.59999C18.8889 6.32298 18.7788 6.05732 18.583 5.86145C18.3871 5.66558 18.1214 5.55554 17.8444 5.55554ZM17.7778 16.6667H2.2222V6.66665H17.7778V16.6667Z" fill="#283849"/>
<path d="M4.75553 10.8055C5.08517 10.8055 5.4074 10.7078 5.68148 10.5246C5.95557 10.3415 6.16919 10.0812 6.29533 9.77664C6.42148 9.4721 6.45449 9.13699 6.39018 8.81368C6.32587 8.49038 6.16713 8.19341 5.93405 7.96032C5.70096 7.72724 5.40399 7.5685 5.08068 7.50419C4.75738 7.43988 4.42227 7.47289 4.11773 7.59904C3.81318 7.72518 3.55289 7.9388 3.36975 8.21288C3.18662 8.48697 3.08887 8.8092 3.08887 9.13884C3.08887 9.58086 3.26446 10.0048 3.57702 10.3173C3.88958 10.6299 4.31351 10.8055 4.75553 10.8055ZM4.75553 8.24995C4.93222 8.24553 5.10621 8.29388 5.25528 8.38883C5.40435 8.48378 5.52173 8.62101 5.59243 8.78299C5.66313 8.94498 5.68393 9.12436 5.65219 9.29822C5.62044 9.47209 5.53758 9.63254 5.4142 9.75909C5.29082 9.88564 5.13251 9.97253 4.95951 10.0087C4.7865 10.0448 4.60665 10.0285 4.44293 9.96197C4.2792 9.8954 4.13905 9.78153 4.04035 9.63491C3.94166 9.48829 3.88892 9.31558 3.88887 9.13884C3.88879 8.90689 3.97939 8.6841 4.14131 8.51802C4.30323 8.35195 4.52366 8.25575 4.75553 8.24995Z" fill="#283849"/>
<path d="M4.38888 15.5556L7.72221 12.2222L9.48888 13.9889L7.92221 15.5556H9.03332L13.1778 11.4111L16.6667 14.8722V13.7611L13.4444 10.5556C13.3706 10.4823 13.2707 10.4412 13.1667 10.4412C13.0626 10.4412 12.9628 10.4823 12.8889 10.5556L10.0222 13.4222L7.98332 11.3889C7.90945 11.3156 7.8096 11.2745 7.70555 11.2745C7.60149 11.2745 7.50165 11.3156 7.42777 11.3889L3.28888 15.5556H4.38888Z" fill="#283849"/>
<path d="M16.7445 1.66664C16.7445 1.5193 16.6859 1.37799 16.5817 1.2738C16.4776 1.16962 16.3363 1.11108 16.1889 1.11108H3.96669C3.81935 1.11108 3.67804 1.16962 3.57385 1.2738C3.46966 1.37799 3.41113 1.5193 3.41113 1.66664V2.2222H16.7445V1.66664Z" fill="#283849"/>
<path d="M17.8444 3.88893C17.8444 3.74159 17.7859 3.60028 17.6817 3.49609C17.5775 3.39191 17.4362 3.33337 17.2889 3.33337H2.84444C2.69709 3.33337 2.55578 3.39191 2.4516 3.49609C2.34741 3.60028 2.28888 3.74159 2.28888 3.88893V4.44449H17.8444V3.88893Z" fill="#283849"/>
</svg>
