<svg width="20" height="20" viewBox="0 0 20 20" fill="none" xmlns="http://www.w3.org/2000/svg">
<path d="M19.4375 11.4375C19.3302 11.5202 19.198 11.5643 19.0625 11.5625C18.9655 11.5625 18.8698 11.5399 18.783 11.4965C18.6962 11.4531 18.6207 11.3901 18.5625 11.3125C18.1858 10.8062 17.6955 10.3953 17.131 10.1131C16.5665 9.83084 15.9436 9.68507 15.3125 9.68752C15.1467 9.68752 14.9878 9.62167 14.8706 9.50446C14.7534 9.38725 14.6875 9.22828 14.6875 9.06252C14.6875 8.89676 14.7534 8.73779 14.8706 8.62058C14.9878 8.50337 15.1467 8.43752 15.3125 8.43752C15.6682 8.43714 16.0165 8.33559 16.3166 8.14471C16.6168 7.95384 16.8565 7.68152 17.0077 7.35955C17.1589 7.03758 17.2154 6.67924 17.1706 6.32637C17.1258 5.97349 16.9815 5.64064 16.7546 5.36667C16.5278 5.0927 16.2277 4.88891 15.8893 4.7791C15.551 4.66929 15.1884 4.65799 14.8439 4.74651C14.4994 4.83503 14.1871 5.01973 13.9436 5.27903C13.7002 5.53834 13.5354 5.86156 13.4688 6.21096C13.4566 6.29451 13.4277 6.37473 13.3837 6.4468C13.3397 6.51886 13.2816 6.58126 13.2128 6.63024C13.1441 6.67922 13.0661 6.71376 12.9836 6.73178C12.9011 6.74979 12.8159 6.75091 12.7329 6.73507C12.65 6.71922 12.5712 6.68674 12.5011 6.63958C12.4311 6.59242 12.3714 6.53157 12.3255 6.46068C12.2796 6.3898 12.2486 6.31036 12.2343 6.22716C12.22 6.14396 12.2227 6.05872 12.2422 5.97658C12.3349 5.49051 12.5417 5.0334 12.8456 4.64288C13.1496 4.25237 13.5419 3.9396 13.9903 3.73033C14.4387 3.52107 14.9304 3.42128 15.4249 3.43918C15.9194 3.45708 16.4026 3.59216 16.8347 3.83331C17.2668 4.07445 17.6355 4.41477 17.9104 4.82624C18.1852 5.23771 18.3585 5.70858 18.4158 6.20008C18.4731 6.69159 18.4129 7.18969 18.2401 7.65337C18.0673 8.11706 17.7869 8.53309 17.4219 8.86721C18.2713 9.23552 19.0094 9.82005 19.5625 10.5625C19.6117 10.6282 19.6476 10.7029 19.6679 10.7824C19.6883 10.8619 19.6928 10.9447 19.6812 11.0259C19.6696 11.1072 19.6421 11.1853 19.6003 11.256C19.5585 11.3266 19.5032 11.3883 19.4375 11.4375ZM15.0625 16.6016C15.133 16.7511 15.1423 16.9222 15.0883 17.0784C15.0343 17.2347 14.9213 17.3635 14.7734 17.4375C14.6872 17.4759 14.5943 17.4971 14.5 17.5C14.3829 17.4992 14.2683 17.4659 14.169 17.4039C14.0697 17.3418 13.9895 17.2534 13.9375 17.1485C13.5771 16.4112 13.017 15.79 12.3209 15.3554C11.6247 14.9209 10.8206 14.6905 10 14.6905C9.17939 14.6905 8.37527 14.9209 7.67915 15.3554C6.98304 15.79 6.4229 16.4112 6.0625 17.1485C6.02664 17.2224 5.97656 17.2885 5.91512 17.343C5.85368 17.3976 5.7821 17.4394 5.70446 17.4663C5.62682 17.4931 5.54465 17.5044 5.46265 17.4995C5.38065 17.4945 5.30042 17.4735 5.22657 17.4375C5.07875 17.3635 4.96575 17.2347 4.91174 17.0784C4.85772 16.9222 4.86696 16.7511 4.9375 16.6016C5.51835 15.4056 6.50354 14.4536 7.71875 13.9141C7.09674 13.4373 6.63972 12.7777 6.41192 12.0278C6.18411 11.2779 6.19697 10.4755 6.44869 9.73334C6.7004 8.99115 7.17832 8.34648 7.8153 7.8899C8.45227 7.43332 9.21629 7.18778 10 7.18778C10.7837 7.18778 11.5477 7.43332 12.1847 7.8899C12.8217 8.34648 13.2996 8.99115 13.5513 9.73334C13.803 10.4755 13.8159 11.2779 13.5881 12.0278C13.3603 12.7777 12.9033 13.4373 12.2813 13.9141C13.4965 14.4536 14.4817 15.4056 15.0625 16.6016ZM10 13.4375C10.4945 13.4375 10.9778 13.2909 11.3889 13.0162C11.8001 12.7415 12.1205 12.351 12.3097 11.8942C12.4989 11.4374 12.5484 10.9347 12.452 10.4498C12.3555 9.96484 12.1174 9.51939 11.7678 9.16976C11.4181 8.82012 10.9727 8.58202 10.4877 8.48556C10.0028 8.3891 9.50011 8.4386 9.04329 8.62782C8.58648 8.81704 8.19603 9.13747 7.92133 9.5486C7.64663 9.95972 7.5 10.4431 7.5 10.9375C7.50206 11.5999 7.76612 12.2346 8.23451 12.703C8.70291 13.1714 9.33759 13.4355 10 13.4375ZM5.3125 9.06252C5.3125 8.89676 5.24665 8.73779 5.12944 8.62058C5.01223 8.50337 4.85326 8.43752 4.6875 8.43752C4.3318 8.43714 3.98353 8.33559 3.68338 8.14471C3.38322 7.95384 3.14355 7.68152 2.99234 7.35955C2.84114 7.03758 2.78464 6.67924 2.82944 6.32637C2.87424 5.97349 3.01849 5.64064 3.24536 5.36667C3.47223 5.0927 3.77235 4.88891 4.11068 4.7791C4.44901 4.66929 4.8116 4.65799 5.15612 4.74651C5.50064 4.83503 5.81287 5.01973 6.05636 5.27903C6.29985 5.53834 6.46456 5.86156 6.53125 6.21096C6.54338 6.29451 6.57231 6.37473 6.6163 6.4468C6.66028 6.51886 6.71841 6.58126 6.78717 6.63024C6.85594 6.67922 6.93391 6.71376 7.01639 6.73178C7.09887 6.74979 7.18415 6.75091 7.26707 6.73507C7.35 6.71922 7.42885 6.68674 7.49888 6.63958C7.56891 6.59242 7.62865 6.53157 7.67451 6.46068C7.72037 6.3898 7.7514 6.31036 7.76572 6.22716C7.78003 6.14396 7.77735 6.05872 7.75782 5.97658C7.66509 5.49051 7.45827 5.0334 7.15436 4.64288C6.85045 4.25237 6.45814 3.9396 6.00973 3.73033C5.56132 3.52107 5.06962 3.42128 4.57511 3.43918C4.08059 3.45708 3.5974 3.59216 3.16529 3.83331C2.73319 4.07445 2.36452 4.41477 2.08965 4.82624C1.81477 5.23771 1.64154 5.70858 1.58421 6.20008C1.52688 6.69159 1.58709 7.18969 1.75988 7.65337C1.93268 8.11706 2.21312 8.53309 2.57813 8.86721C1.72868 9.23552 0.990618 9.82005 0.437503 10.5625C0.338046 10.6951 0.295342 10.8618 0.318784 11.0259C0.342226 11.19 0.429894 11.3381 0.562503 11.4375C0.669854 11.5202 0.801991 11.5643 0.937503 11.5625C1.03453 11.5625 1.13023 11.5399 1.21701 11.4965C1.3038 11.4531 1.37929 11.3901 1.4375 11.3125C1.81421 10.8062 2.30454 10.3953 2.86903 10.1131C3.43352 9.83084 4.05639 9.68507 4.6875 9.68752C4.85326 9.68752 5.01223 9.62167 5.12944 9.50446C5.24665 9.38725 5.3125 9.22828 5.3125 9.06252Z" fill="#283849"/>
</svg>
