<svg width="20" height="20" viewBox="0 0 20 20" fill="none" xmlns="http://www.w3.org/2000/svg">
<path d="M16.875 13.8375V6.16254C17.3032 6.05403 17.695 5.83401 18.0105 5.52487C18.326 5.21573 18.554 4.8285 18.6712 4.40261C18.7885 3.97673 18.7908 3.52738 18.6779 3.10031C18.565 2.67325 18.341 2.28372 18.0286 1.97137C17.7163 1.65902 17.3268 1.43501 16.8997 1.32213C16.4726 1.20926 16.0233 1.21155 15.5974 1.32878C15.1715 1.44602 14.7843 1.674 14.4751 1.98952C14.166 2.30504 13.946 2.69684 13.8375 3.12504H6.16248C6.05397 2.69684 5.83395 2.30504 5.52481 1.98952C5.21567 1.674 4.82844 1.44602 4.40255 1.32878C3.97666 1.21155 3.52732 1.20926 3.10025 1.32213C2.67319 1.43501 2.28366 1.65902 1.97131 1.97137C1.65896 2.28372 1.43494 2.67325 1.32207 3.10031C1.2092 3.52738 1.21149 3.97673 1.32872 4.40261C1.44595 4.8285 1.67393 5.21573 1.98946 5.52487C2.30498 5.83401 2.69678 6.05403 3.12498 6.16254V13.8375C2.69678 13.946 2.30498 14.1661 1.98946 14.4752C1.67393 14.7844 1.44595 15.1716 1.32872 15.5975C1.21149 16.0234 1.2092 16.4727 1.32207 16.8998C1.43494 17.3268 1.65896 17.7164 1.97131 18.0287C2.28366 18.3411 2.67319 18.5651 3.10025 18.6779C3.52732 18.7908 3.97666 18.7885 4.40255 18.6713C4.82844 18.5541 5.21567 18.3261 5.52481 18.0106C5.83395 17.695 6.05397 17.3032 6.16248 16.875H13.8375C13.946 17.3032 14.166 17.695 14.4751 18.0106C14.7843 18.3261 15.1715 18.5541 15.5974 18.6713C16.0233 18.7885 16.4726 18.7908 16.8997 18.6779C17.3268 18.5651 17.7163 18.3411 18.0286 18.0287C18.341 17.7164 18.565 17.3268 18.6779 16.8998C18.7908 16.4727 18.7885 16.0234 18.6712 15.5975C18.554 15.1716 18.326 14.7844 18.0105 14.4752C17.695 14.1661 17.3032 13.946 16.875 13.8375ZM16.25 2.50004C16.4972 2.50004 16.7389 2.57335 16.9444 2.7107C17.15 2.84805 17.3102 3.04328 17.4048 3.27169C17.4994 3.50009 17.5242 3.75143 17.476 3.9939C17.4277 4.23638 17.3087 4.45911 17.1339 4.63392C16.959 4.80874 16.7363 4.92779 16.4938 4.97602C16.2514 5.02425 16 4.9995 15.7716 4.90489C15.5432 4.81028 15.348 4.65006 15.2106 4.4445C15.0733 4.23894 15 3.99727 15 3.75004C15 3.41852 15.1317 3.10058 15.3661 2.86616C15.6005 2.63174 15.9185 2.50004 16.25 2.50004ZM2.49998 3.75004C2.49998 3.50281 2.57329 3.26114 2.71064 3.05558C2.84799 2.85002 3.04322 2.6898 3.27162 2.59519C3.50003 2.50058 3.75137 2.47583 3.99384 2.52406C4.23632 2.57229 4.45905 2.69134 4.63386 2.86616C4.80868 3.04097 4.92773 3.2637 4.97596 3.50618C5.02419 3.74865 4.99944 3.99999 4.90483 4.22839C4.81022 4.4568 4.65 4.65202 4.44444 4.78938C4.23888 4.92673 3.99721 5.00004 3.74998 5.00004C3.41846 5.00004 3.10052 4.86834 2.86609 4.63392C2.63167 4.3995 2.49998 4.08156 2.49998 3.75004ZM3.74998 17.5C3.50275 17.5 3.26108 17.4267 3.05552 17.2894C2.84995 17.152 2.68974 16.9568 2.59513 16.7284C2.50052 16.5 2.47577 16.2487 2.524 16.0062C2.57223 15.7637 2.69128 15.541 2.86609 15.3662C3.04091 15.1913 3.26364 15.0723 3.50612 15.0241C3.74859 14.9758 3.99993 15.0006 4.22833 15.0952C4.45674 15.1898 4.65196 15.35 4.78932 15.5556C4.92667 15.7611 4.99998 16.0028 4.99998 16.25C4.99998 16.5816 4.86828 16.8995 4.63386 17.1339C4.39944 17.3683 4.0815 17.5 3.74998 17.5ZM13.8375 15.625H6.16248C6.05025 15.1951 5.82548 14.8029 5.5113 14.4887C5.19712 14.1745 4.80489 13.9498 4.37498 13.8375V6.16254C4.80489 6.05032 5.19712 5.82554 5.5113 5.51136C5.82548 5.19719 6.05025 4.80495 6.16248 4.37504H13.8375C13.9497 4.80495 14.1745 5.19719 14.4887 5.51136C14.8028 5.82554 15.1951 6.05032 15.625 6.16254V13.8375C15.1951 13.9498 14.8028 14.1745 14.4887 14.4887C14.1745 14.8029 13.9497 15.1951 13.8375 15.625ZM16.25 17.5C16.0028 17.5 15.7611 17.4267 15.5555 17.2894C15.35 17.152 15.1897 16.9568 15.0951 16.7284C15.0005 16.5 14.9758 16.2487 15.024 16.0062C15.0722 15.7637 15.1913 15.541 15.3661 15.3662C15.5409 15.1913 15.7636 15.0723 16.0061 15.0241C16.2486 14.9758 16.4999 15.0006 16.7283 15.0952C16.9567 15.1898 17.152 15.35 17.2893 15.5556C17.4267 15.7611 17.5 16.0028 17.5 16.25C17.5 16.5816 17.3683 16.8995 17.1339 17.1339C16.8994 17.3683 16.5815 17.5 16.25 17.5Z" fill="#283849"/>
<path d="M13.125 6.875H6.875V8.125H9.375V13.75H10.625V8.125H13.125V6.875Z" fill="#283849"/>
</svg>
