<svg width="20" height="20" viewBox="0 0 20 20" fill="none" xmlns="http://www.w3.org/2000/svg">
<path fill-rule="evenodd" clip-rule="evenodd" d="M6.2333 2.64701V12.4509C6.2333 12.7109 6.13001 12.9603 5.94615 13.1441C5.7623 13.328 5.51293 13.4313 5.25291 13.4313H2.31175C2.05173 13.4313 1.80237 13.328 1.61851 13.1441C1.43465 12.9603 1.33136 12.7109 1.33136 12.4509V2.64701C1.33136 2.387 1.43465 2.13763 1.61851 1.95377C1.80237 1.76992 2.05173 1.66663 2.31175 1.66663H5.25291C5.51293 1.66663 5.7623 1.76992 5.94615 1.95377C6.13001 2.13763 6.2333 2.387 6.2333 2.64701ZM2.31175 12.4509H5.25291V2.64701H2.31175V12.4509ZM12.4512 7.54905V17.3529C12.4512 17.613 12.3479 17.8623 12.164 18.0462C11.9802 18.23 11.7308 18.3333 11.4708 18.3333H8.5296C8.26959 18.3333 8.02022 18.23 7.83636 18.0462C7.65251 17.8623 7.54922 17.613 7.54922 17.3529V7.54905C7.54922 7.28904 7.65251 7.03967 7.83636 6.85581C8.02022 6.67195 8.26959 6.56866 8.5296 6.56866H11.4708C11.7308 6.56866 11.9802 6.67195 12.164 6.85581C12.3479 7.03967 12.4512 7.28904 12.4512 7.54905ZM8.5296 17.3529H11.4708V7.54905H8.5296V17.3529ZM18.669 12.4509V2.64701C18.669 2.387 18.5657 2.13763 18.3819 1.95377C18.198 1.76992 17.9486 1.66663 17.6886 1.66663H14.7475C14.4874 1.66663 14.2381 1.76992 14.0542 1.95377C13.8704 2.13763 13.7671 2.387 13.7671 2.64701V12.4509C13.7671 12.7109 13.8704 12.9603 14.0542 13.1441C14.2381 13.328 14.4874 13.4313 14.7475 13.4313H17.6886C17.9486 13.4313 18.198 13.328 18.3819 13.1441C18.5657 12.9603 18.669 12.7109 18.669 12.4509ZM17.6886 12.4509H14.7475V2.64701H17.6886V12.4509Z" fill="#283849"/>
</svg>
